<?xml version="1.0" standalone="no"?>
<!DOCTYPE svg PUBLIC "-//W3C//DTD SVG 20010904//EN"
 "http://www.w3.org/TR/2001/REC-SVG-20010904/DTD/svg10.dtd">
<svg version="1.0" xmlns="http://www.w3.org/2000/svg"
 width="115.000000pt" height="115.000000pt" viewBox="0 0 115.000000 115.000000"
 preserveAspectRatio="xMidYMid meet">
<metadata>
Created by potrace 1.14, written by Peter Selinger 2001-2017
</metadata>
<g transform="translate(0.000000,115.000000) scale(0.100000,-0.100000)"
fill="#000000" stroke="none">
<path d="M431 1134 c-151 -41 -303 -162 -368 -294 -99 -200 -76 -440 59 -611
53 -67 79 -90 150 -134 103 -65 155 -78 323 -81 204 -5 278 13 405 97 53 35
140 122 140 140 0 4 -35 29 -77 53 l-78 45 -22 -21 -22 -21 -36 22 -36 21 -27
-28 c-45 -46 -114 -89 -170 -106 -48 -14 -58 -14 -100 0 -66 22 -110 50 -160
101 -136 141 -140 369 -9 519 26 31 116 93 142 99 11 2 34 8 50 13 56 16 167
-30 231 -97 l38 -39 39 20 c39 19 39 19 61 -1 l21 -20 78 45 c42 24 77 49 77
55 0 18 -114 126 -167 157 -103 62 -162 75 -333 78 -112 2 -170 -1 -209 -12z"/>
</g>
</svg>
